<?xml version="1.0" encoding="UTF-8" standalone="no"?>
<!DOCTYPE svg PUBLIC "-//W3C//DTD SVG 20010904//EN"
              "http://www.w3.org/TR/2001/REC-SVG-20010904/DTD/svg10.dtd">

<svg xmlns="http://www.w3.org/2000/svg"
     width="1in" height="1in"
     viewBox="0 0 300 300">
  <path id="bottom"
        fill="none" stroke="black" stroke-width="1"
        d="M 290.00,9.00
           C 290.00,9.00 291.00,35.00 291.00,35.00
             291.00,35.00 291.00,93.00 291.00,93.00
             291.00,93.00 291.00,291.00 291.00,291.00
             291.00,291.00 9.00,291.00 9.00,291.00
             11.96,286.86 23.62,274.21 28.00,272.60
             29.77,271.95 32.12,272.01 34.00,272.00
             34.00,272.00 84.00,272.00 84.00,272.00
             84.00,272.00 272.00,272.00 272.00,272.00
             272.00,272.00 272.00,92.00 272.00,92.00
             272.00,92.00 272.00,35.00 272.00,35.00
             272.00,35.00 272.60,28.00 272.60,28.00
             272.60,28.00 290.00,9.00 290.00,9.00 Z" />
</svg>
