<?xml version="1.0" encoding="UTF-8" standalone="no"?>
<!DOCTYPE svg PUBLIC "-//W3C//DTD SVG 20010904//EN"
              "http://www.w3.org/TR/2001/REC-SVG-20010904/DTD/svg10.dtd">

<svg xmlns="http://www.w3.org/2000/svg"
     width="1in" height="1in"
     viewBox="0 0 300 300">
  <path id="Selección"
        fill="none" stroke="black" stroke-width="1"
        d="M 8.00,8.00
           C 8.00,8.00 291.00,8.00 291.00,8.00
             288.11,12.04 276.04,24.96 272.00,26.98
             269.76,28.10 267.43,27.98 265.00,28.00
             265.00,28.00 215.00,28.00 215.00,28.00
             215.00,28.00 28.00,28.00 28.00,28.00
             28.00,28.00 28.00,215.00 28.00,215.00
             28.00,215.00 28.00,265.00 28.00,265.00
             28.00,265.00 27.43,271.72 27.43,271.72
             27.43,271.72 21.00,279.00 21.00,279.00
             21.00,279.00 8.00,291.00 8.00,291.00
             8.00,291.00 8.00,8.00 8.00,8.00 Z" />
</svg>
